<svg width="33" height="35" viewBox="0 0 33 35" fill="none" xmlns="http://www.w3.org/2000/svg">
<path d="M32.564 5.75212C32.3533 5.45811 32.0745 5.21876 31.7512 5.05429C31.4278 4.88981 31.0693 4.80504 30.706 4.80712H8.14066C8.1244 4.80712 8.1122 4.81519 8.09594 4.81654L7.29231 1.70962C7.16592 1.22028 6.87915 0.786646 6.47722 0.477098C6.0753 0.16755 5.58108 -0.000304789 5.0725 4.15471e-07H0.677598C0.497887 4.15471e-07 0.325538 0.0709138 0.198464 0.19714C0.0713894 0.323367 0 0.494566 0 0.673077C0 0.851588 0.0713894 1.02279 0.198464 1.14901C0.325538 1.27524 0.497887 1.34615 0.677598 1.34615H5.0725C5.28028 1.346 5.4822 1.41459 5.64638 1.54111C5.81055 1.66762 5.92763 1.84485 5.97912 2.04481L11.9664 25.2094C12.0925 25.6988 12.3789 26.1326 12.7806 26.4423C13.1823 26.7521 13.6763 26.9203 14.1848 26.9204H28.7722C28.9519 26.9204 29.1242 26.8495 29.2513 26.7232C29.3784 26.597 29.4498 26.4258 29.4498 26.2473C29.4498 26.0688 29.3784 25.8976 29.2513 25.7714C29.1242 25.6451 28.9519 25.5742 28.7722 25.5742H14.1848C13.9773 25.5741 13.7757 25.5054 13.6118 25.3789C13.4479 25.2524 13.331 25.0753 13.2796 24.8756L12.1683 20.5773H26.9413C27.4222 20.5775 27.891 20.4272 28.2812 20.1479C28.6713 19.8686 28.9631 19.4744 29.115 19.0212L32.8798 7.80365C32.9966 7.46161 33.0289 7.09666 32.974 6.7396C32.919 6.38255 32.7784 6.04386 32.564 5.75212ZM26.9426 19.2312H11.82L8.44016 6.15327H30.706C30.8545 6.15217 31.001 6.18673 31.1332 6.254C31.2653 6.32127 31.3791 6.41925 31.4649 6.53962C31.5522 6.65881 31.6094 6.79703 31.6318 6.94272C31.6542 7.0884 31.6411 7.23729 31.5937 7.37692L30.8429 9.61558H18.4239C18.2442 9.61558 18.0718 9.68649 17.9447 9.81272C17.8177 9.93894 17.7463 10.1101 17.7463 10.2887C17.7463 10.4672 17.8177 10.6384 17.9447 10.7646C18.0718 10.8908 18.2442 10.9617 18.4239 10.9617H30.3916L29.2302 14.4227H20.0379C19.8582 14.4227 19.6859 14.4936 19.5588 14.6198C19.4317 14.7461 19.3603 14.9173 19.3603 15.0958C19.3603 15.2743 19.4317 15.4455 19.5588 15.5717C19.6859 15.6979 19.8582 15.7688 20.0379 15.7688H28.7776L27.8289 18.5944C27.7677 18.7799 27.649 18.9413 27.4899 19.0557C27.3307 19.1701 27.1391 19.2315 26.9426 19.2312ZM14.3908 28.8467C13.5696 28.8474 12.7823 29.1717 12.2015 29.7484C11.6207 30.325 11.2939 31.107 11.2928 31.9227C11.2928 33.6202 12.6819 35 14.3908 35C16.0997 35 17.4888 33.6202 17.4888 31.9227C17.4877 31.107 17.1609 30.325 16.5802 29.7484C15.9994 29.1717 15.212 28.8474 14.3908 28.8467ZM14.3908 33.6538C14.0458 33.6541 13.7084 33.5527 13.4213 33.3624C13.1343 33.1722 12.9105 32.9016 12.7784 32.585C12.6462 32.2683 12.6115 31.9199 12.6788 31.5837C12.746 31.2475 12.9122 30.9387 13.1562 30.6963C13.4002 30.4539 13.7111 30.2889 14.0495 30.2221C14.388 30.1553 14.7388 30.1897 15.0575 30.321C15.3763 30.4523 15.6487 30.6745 15.8402 30.9597C16.0318 31.2448 16.1339 31.5799 16.1336 31.9227C16.1336 32.8771 15.3517 33.6538 14.3908 33.6538ZM27.2977 28.8467C26.4765 28.8474 25.6892 29.1717 25.1084 29.7484C24.5276 30.325 24.2008 31.107 24.1997 31.9227C24.1997 33.6202 25.5888 35 27.2977 35C29.0066 35 30.3957 33.6202 30.3957 31.9227C30.3946 31.107 30.0678 30.325 29.487 29.7484C28.9062 29.1717 28.1189 28.8474 27.2977 28.8467ZM27.2977 33.6538C26.9526 33.6541 26.6152 33.5527 26.3282 33.3624C26.0412 33.1722 25.8174 32.9016 25.6852 32.585C25.5531 32.2683 25.5184 31.9199 25.5857 31.5837C25.6529 31.2475 25.8191 30.9387 26.0631 30.6963C26.3071 30.4539 26.618 30.2889 26.9564 30.2221C27.2949 30.1553 27.6457 30.1897 27.9644 30.321C28.2832 30.4523 28.5556 30.6745 28.7471 30.9597C28.9387 31.2448 29.0408 31.5799 29.0405 31.9227C29.0405 32.8771 28.2585 33.6538 27.2977 33.6538Z" fill="#202E3C"/>
</svg>
