<svg width="59" height="63" viewBox="0 0 59 63" fill="none" xmlns="http://www.w3.org/2000/svg">
<path d="M31.2478 34.5382L24.4612 41.7284C24.1847 42.0203 23.9652 42.3676 23.8154 42.7502C23.6656 43.1328 23.5884 43.5432 23.5884 43.9577C23.5884 44.3722 23.6656 44.7826 23.8154 45.1652C23.9652 45.5478 24.1847 45.8951 24.4612 46.1869C24.7355 46.4812 25.0619 46.7148 25.4215 46.8742C25.781 47.0336 26.1667 47.1157 26.5562 47.1157C26.9458 47.1157 27.3314 47.0336 27.691 46.8742C28.0506 46.7148 28.3769 46.4812 28.6512 46.1869L40.454 33.6277C40.7226 33.3291 40.9332 32.977 41.0736 32.5916C41.3688 31.8271 41.3688 30.9697 41.0736 30.2053C40.9332 29.8199 40.7226 29.4678 40.454 29.1692L28.6512 16.6099C28.3761 16.3172 28.0495 16.0849 27.69 15.9265C27.3306 15.7681 26.9453 15.6865 26.5562 15.6865C26.1672 15.6865 25.7819 15.7681 25.4224 15.9265C25.063 16.0849 24.7364 16.3172 24.4612 16.6099C24.1861 16.9027 23.9679 17.2502 23.819 17.6327C23.6701 18.0152 23.5935 18.4252 23.5935 18.8392C23.5935 19.2532 23.6701 19.6632 23.819 20.0457C23.9679 20.4282 24.1861 20.7757 24.4612 21.0685L31.2478 28.2586H2.95069C2.16812 28.2586 1.4176 28.5894 0.864238 29.1783C0.310876 29.7671 0 30.5657 0 31.3984C0 32.2312 0.310876 33.0298 0.864238 33.6186C1.4176 34.2074 2.16812 34.5382 2.95069 34.5382H31.2478ZM29.5069 0.000313019C23.9923 -0.0258849 18.5812 1.59287 13.8873 4.67295C9.19345 7.75304 5.40465 12.1712 2.95069 17.4263C2.59853 18.1757 2.54059 19.0433 2.7896 19.8383C3.03862 20.6332 3.57419 21.2903 4.2785 21.665C4.98282 22.0397 5.79818 22.1014 6.54522 21.8364C7.29226 21.5715 7.90978 21.0016 8.26194 20.2521C10.1273 16.2436 12.9648 12.8378 16.4812 10.3868C19.9976 7.93574 24.0653 6.52835 28.264 6.31005C32.4626 6.09176 36.6399 7.07047 40.3641 9.14505C44.0882 11.2196 47.2243 14.3148 49.448 18.1107C51.6718 21.9067 52.9026 26.2656 53.0133 30.7371C53.124 35.2087 52.1106 39.6305 50.0777 43.5458C48.0449 47.461 45.0663 50.7276 41.45 53.008C37.8336 55.2883 33.7105 56.4997 29.5069 56.5169C25.1071 56.5372 20.791 55.237 17.0541 52.7656C13.3172 50.2942 10.3108 46.7518 8.37997 42.5448C8.02781 41.7953 7.41029 41.2254 6.66325 40.9604C5.91621 40.6955 5.10085 40.7571 4.39653 41.1319C3.69222 41.5066 3.15664 42.1637 2.90763 42.9586C2.65862 43.7535 2.71656 44.6211 3.06872 45.3706C5.40811 50.3802 8.96279 54.6338 13.3651 57.6914C17.7674 60.749 22.8574 62.4995 28.1087 62.762C33.3599 63.0244 38.5817 61.7893 43.234 59.1842C47.8862 56.5792 51.7999 52.6989 54.5703 47.9447C57.3407 43.1905 58.8671 37.735 58.9917 32.1426C59.1163 26.5501 57.8345 21.0238 55.279 16.1353C52.7234 11.2467 48.9869 7.17342 44.4559 4.33673C39.9249 1.50003 34.764 0.00293932 29.5069 0.000313019Z" fill="white"/>
</svg>
